<svg width="866" height="200" viewBox="0 0 866 200" fill="none" xmlns="http://www.w3.org/2000/svg">
<rect width="866" height="200" rx="5" fill="#EAEAEA"/>
<path d="M0 10C0 4.47716 4.47715 0 10 0H64.8689V200H10C4.47715 200 0 195.523 0 190V10Z" fill="#45579A"/>
<path d="M866 190C866 195.523 861.523 200 856 200L810.861 200L810.861 0L856 0C861.523 0 866 4.47715 866 10L866 190Z" fill="#B11433"/>
<rect x="101" y="137" width="677.88" height="42.2535" rx="2" fill="#B6B6B6"/>
<rect x="136.678" y="145.451" width="152.442" height="25.3521" rx="2" fill="#8F8F8F"/>
<path d="M184.914 162.268H182.443L186.209 151.358H189.181L192.942 162.268H190.47L187.738 153.851H187.652L184.914 162.268ZM184.76 157.98H190.598V159.78H184.76V157.98ZM196.481 157.537V162.268H194.212V154.086H196.375V155.529H196.471C196.652 155.053 196.955 154.677 197.382 154.4C197.808 154.119 198.324 153.979 198.932 153.979C199.5 153.979 199.995 154.104 200.418 154.352C200.84 154.601 201.169 154.956 201.403 155.417C201.638 155.876 201.755 156.422 201.755 157.058V162.268H199.486V157.463C199.489 156.962 199.361 156.572 199.102 156.291C198.843 156.007 198.486 155.865 198.031 155.865C197.726 155.865 197.456 155.931 197.222 156.062C196.991 156.193 196.81 156.385 196.678 156.637C196.551 156.886 196.485 157.186 196.481 157.537ZM207.229 165.506C206.494 165.506 205.864 165.405 205.338 165.203C204.816 165.004 204.401 164.732 204.092 164.388C203.783 164.043 203.582 163.656 203.49 163.226L205.589 162.944C205.653 163.107 205.754 163.26 205.892 163.402C206.031 163.544 206.214 163.658 206.441 163.743C206.672 163.832 206.952 163.876 207.283 163.876C207.776 163.876 208.183 163.756 208.502 163.514C208.826 163.276 208.987 162.877 208.987 162.316V160.819H208.891C208.792 161.046 208.643 161.261 208.444 161.463C208.245 161.666 207.989 161.831 207.677 161.959C207.364 162.086 206.991 162.15 206.558 162.15C205.944 162.15 205.384 162.008 204.88 161.724C204.38 161.437 203.98 160.998 203.682 160.409C203.387 159.816 203.24 159.066 203.24 158.161C203.24 157.234 203.391 156.46 203.692 155.838C203.994 155.217 204.396 154.752 204.896 154.443C205.4 154.134 205.953 153.979 206.553 153.979C207.011 153.979 207.394 154.057 207.703 154.214C208.012 154.366 208.261 154.558 208.449 154.789C208.641 155.016 208.788 155.24 208.891 155.46H208.976V154.086H211.23V162.347C211.23 163.044 211.059 163.626 210.718 164.095C210.377 164.563 209.905 164.915 209.301 165.149C208.701 165.387 208.011 165.506 207.229 165.506ZM207.277 160.446C207.643 160.446 207.952 160.355 208.204 160.174C208.46 159.99 208.655 159.727 208.79 159.386C208.929 159.041 208.998 158.629 208.998 158.15C208.998 157.671 208.93 157.255 208.795 156.904C208.66 156.548 208.465 156.273 208.209 156.078C207.954 155.883 207.643 155.785 207.277 155.785C206.904 155.785 206.59 155.886 206.334 156.089C206.079 156.287 205.885 156.564 205.754 156.92C205.622 157.275 205.557 157.685 205.557 158.15C205.557 158.622 205.622 159.031 205.754 159.375C205.889 159.716 206.082 159.981 206.334 160.169C206.59 160.354 206.904 160.446 207.277 160.446ZM218.282 158.784V154.086H220.551V162.268H218.373V160.781H218.288C218.103 161.261 217.796 161.646 217.366 161.937C216.94 162.229 216.42 162.374 215.805 162.374C215.258 162.374 214.777 162.25 214.362 162.001C213.946 161.753 213.621 161.399 213.387 160.941C213.156 160.483 213.039 159.934 213.035 159.295V154.086H215.305V158.89C215.308 159.373 215.438 159.755 215.693 160.036C215.949 160.316 216.292 160.456 216.722 160.456C216.995 160.456 217.251 160.394 217.489 160.27C217.726 160.142 217.918 159.954 218.064 159.705C218.213 159.457 218.286 159.15 218.282 158.784ZM224.636 151.358V162.268H222.366V151.358H224.636ZM228.786 162.422C228.264 162.422 227.799 162.331 227.391 162.15C226.983 161.966 226.659 161.694 226.421 161.335C226.187 160.973 226.07 160.522 226.07 159.982C226.07 159.528 226.153 159.146 226.32 158.837C226.487 158.528 226.714 158.28 227.002 158.091C227.29 157.903 227.616 157.761 227.982 157.665C228.351 157.569 228.739 157.502 229.143 157.463C229.619 157.413 230.003 157.367 230.294 157.324C230.585 157.278 230.796 157.211 230.928 157.122C231.059 157.033 231.125 156.902 231.125 156.728V156.696C231.125 156.358 231.018 156.097 230.805 155.913C230.596 155.728 230.297 155.636 229.91 155.636C229.502 155.636 229.177 155.726 228.936 155.907C228.694 156.085 228.534 156.309 228.456 156.579L226.358 156.408C226.464 155.911 226.674 155.481 226.986 155.119C227.299 154.753 227.702 154.473 228.195 154.278C228.692 154.079 229.268 153.979 229.921 153.979C230.376 153.979 230.811 154.032 231.226 154.139C231.645 154.246 232.016 154.411 232.339 154.634C232.666 154.858 232.924 155.146 233.112 155.497C233.3 155.845 233.394 156.263 233.394 156.749V162.268H231.242V161.133H231.178C231.047 161.389 230.871 161.614 230.651 161.809C230.431 162.001 230.166 162.152 229.857 162.262C229.548 162.369 229.191 162.422 228.786 162.422ZM229.436 160.856C229.77 160.856 230.065 160.79 230.321 160.659C230.576 160.524 230.777 160.343 230.922 160.116C231.068 159.888 231.141 159.631 231.141 159.343V158.475C231.07 158.521 230.972 158.564 230.848 158.603C230.727 158.638 230.59 158.672 230.438 158.704C230.285 158.732 230.132 158.759 229.98 158.784C229.827 158.805 229.688 158.825 229.564 158.843C229.298 158.882 229.065 158.944 228.866 159.029C228.668 159.114 228.513 159.23 228.403 159.375C228.293 159.517 228.238 159.695 228.238 159.908C228.238 160.217 228.35 160.453 228.573 160.616C228.801 160.776 229.088 160.856 229.436 160.856ZM235.155 162.268V154.086H237.354V155.513H237.44C237.589 155.006 237.839 154.622 238.191 154.363C238.542 154.1 238.947 153.969 239.405 153.969C239.519 153.969 239.641 153.976 239.773 153.99C239.904 154.004 240.02 154.024 240.119 154.048V156.062C240.013 156.03 239.865 156.002 239.677 155.977C239.489 155.952 239.316 155.939 239.16 155.939C238.826 155.939 238.528 156.012 238.265 156.158C238.006 156.3 237.8 156.499 237.647 156.754C237.498 157.01 237.424 157.305 237.424 157.639V162.268H235.155Z" fill="white"/>
<path d="M103.528 115V85.9091H109.679V109.929H122.151V115H103.528ZM126.224 115V85.9091H137.701C139.898 85.9091 141.773 86.3021 143.326 87.0881C144.888 87.8646 146.077 88.9678 146.891 90.3977C147.715 91.8182 148.127 93.4896 148.127 95.4119C148.127 97.3437 147.71 99.0057 146.877 100.398C146.044 101.78 144.836 102.841 143.255 103.58C141.683 104.318 139.78 104.688 137.545 104.688H129.86V99.7443H136.55C137.725 99.7443 138.7 99.5833 139.477 99.2614C140.253 98.9394 140.831 98.4564 141.21 97.8125C141.598 97.1686 141.792 96.3684 141.792 95.4119C141.792 94.446 141.598 93.6316 141.21 92.9688C140.831 92.3059 140.248 91.804 139.462 91.4631C138.686 91.1127 137.706 90.9375 136.522 90.9375H132.374V115H126.224ZM141.934 101.761L149.164 115H142.374L135.3 101.761H141.934ZM178.141 96.0938H171.92C171.806 95.2888 171.574 94.5739 171.224 93.9489C170.873 93.3144 170.424 92.7746 169.874 92.3295C169.325 91.8845 168.691 91.5436 167.971 91.3068C167.261 91.0701 166.489 90.9517 165.656 90.9517C164.15 90.9517 162.838 91.3258 161.721 92.0739C160.603 92.8125 159.737 93.892 159.121 95.3125C158.506 96.7235 158.198 98.4375 158.198 100.455C158.198 102.528 158.506 104.271 159.121 105.682C159.746 107.093 160.618 108.158 161.735 108.878C162.853 109.598 164.145 109.957 165.613 109.957C166.437 109.957 167.199 109.848 167.9 109.631C168.61 109.413 169.24 109.096 169.789 108.679C170.338 108.253 170.793 107.737 171.153 107.131C171.522 106.525 171.778 105.833 171.92 105.057L178.141 105.085C177.98 106.42 177.578 107.708 176.934 108.949C176.299 110.18 175.442 111.283 174.363 112.259C173.293 113.224 172.014 113.991 170.528 114.56C169.05 115.118 167.379 115.398 165.513 115.398C162.919 115.398 160.599 114.811 158.553 113.636C156.517 112.462 154.907 110.762 153.724 108.537C152.549 106.312 151.962 103.617 151.962 100.455C151.962 97.2822 152.559 94.5833 153.752 92.358C154.945 90.1326 156.565 88.4375 158.61 87.2727C160.656 86.0985 162.957 85.5114 165.513 85.5114C167.199 85.5114 168.762 85.7481 170.201 86.2216C171.65 86.6951 172.933 87.3864 174.05 88.2955C175.168 89.1951 176.077 90.2983 176.778 91.6051C177.488 92.9119 177.942 94.4081 178.141 96.0938ZM180.847 85.9091H187.737L194.37 98.4375H194.654L201.288 85.9091H208.177L197.566 104.716V115H191.458V104.716L180.847 85.9091Z" fill="black"/>
<rect x="519.404" y="145.451" width="152.442" height="25.3521" rx="2" fill="#8F8F8F"/>
<path d="M565.761 162.268V151.358H568.067V160.366H572.744V162.268H565.761ZM576.562 162.422C576.04 162.422 575.575 162.331 575.166 162.15C574.758 161.966 574.435 161.694 574.197 161.335C573.962 160.973 573.845 160.522 573.845 159.982C573.845 159.528 573.929 159.146 574.096 158.837C574.263 158.528 574.49 158.28 574.777 158.091C575.065 157.903 575.392 157.761 575.758 157.665C576.127 157.569 576.514 157.502 576.919 157.463C577.395 157.413 577.778 157.367 578.069 157.324C578.361 157.278 578.572 157.211 578.703 157.122C578.835 157.033 578.9 156.902 578.9 156.728V156.696C578.9 156.358 578.794 156.097 578.581 155.913C578.371 155.728 578.073 155.636 577.686 155.636C577.277 155.636 576.953 155.726 576.711 155.907C576.47 156.085 576.31 156.309 576.232 156.579L574.133 156.408C574.239 155.911 574.449 155.481 574.761 155.119C575.074 154.753 575.477 154.473 575.971 154.278C576.468 154.079 577.043 153.979 577.696 153.979C578.151 153.979 578.586 154.032 579.002 154.139C579.421 154.246 579.792 154.411 580.115 154.634C580.441 154.858 580.699 155.146 580.887 155.497C581.075 155.845 581.169 156.263 581.169 156.749V162.268H579.017V161.133H578.954C578.822 161.389 578.646 161.614 578.426 161.809C578.206 162.001 577.941 162.152 577.633 162.262C577.324 162.369 576.967 162.422 576.562 162.422ZM577.212 160.856C577.546 160.856 577.84 160.79 578.096 160.659C578.352 160.524 578.552 160.343 578.698 160.116C578.843 159.888 578.916 159.631 578.916 159.343V158.475C578.845 158.521 578.748 158.564 578.623 158.603C578.503 158.638 578.366 158.672 578.213 158.704C578.06 158.732 577.908 158.759 577.755 158.784C577.602 158.805 577.464 158.825 577.34 158.843C577.073 158.882 576.841 158.944 576.642 159.029C576.443 159.114 576.288 159.23 576.178 159.375C576.068 159.517 576.013 159.695 576.013 159.908C576.013 160.217 576.125 160.453 576.349 160.616C576.576 160.776 576.864 160.856 577.212 160.856ZM582.93 162.268V154.086H585.13V155.513H585.215C585.364 155.006 585.615 154.622 585.966 154.363C586.318 154.1 586.723 153.969 587.181 153.969C587.294 153.969 587.417 153.976 587.548 153.99C587.68 154.004 587.795 154.024 587.894 154.048V156.062C587.788 156.03 587.641 156.002 587.452 155.977C587.264 155.952 587.092 155.939 586.936 155.939C586.602 155.939 586.304 156.012 586.041 156.158C585.782 156.3 585.576 156.499 585.423 156.754C585.274 157.01 585.199 157.305 585.199 157.639V162.268H582.93ZM591.166 162.422C590.644 162.422 590.179 162.331 589.771 162.15C589.362 161.966 589.039 161.694 588.801 161.335C588.567 160.973 588.45 160.522 588.45 159.982C588.45 159.528 588.533 159.146 588.7 158.837C588.867 158.528 589.094 158.28 589.382 158.091C589.67 157.903 589.996 157.761 590.362 157.665C590.731 157.569 591.118 157.502 591.523 157.463C591.999 157.413 592.383 157.367 592.674 157.324C592.965 157.278 593.176 157.211 593.308 157.122C593.439 157.033 593.505 156.902 593.505 156.728V156.696C593.505 156.358 593.398 156.097 593.185 155.913C592.976 155.728 592.677 155.636 592.29 155.636C591.882 155.636 591.557 155.726 591.316 155.907C591.074 156.085 590.914 156.309 590.836 156.579L588.737 156.408C588.844 155.911 589.053 155.481 589.366 155.119C589.678 154.753 590.081 154.473 590.575 154.278C591.072 154.079 591.648 153.979 592.301 153.979C592.756 153.979 593.191 154.032 593.606 154.139C594.025 154.246 594.396 154.411 594.719 154.634C595.046 154.858 595.303 155.146 595.492 155.497C595.68 155.845 595.774 156.263 595.774 156.749V162.268H593.622V161.133H593.558C593.427 161.389 593.251 161.614 593.031 161.809C592.811 162.001 592.546 162.152 592.237 162.262C591.928 162.369 591.571 162.422 591.166 162.422ZM591.816 160.856C592.15 160.856 592.445 160.79 592.7 160.659C592.956 160.524 593.157 160.343 593.302 160.116C593.448 159.888 593.521 159.631 593.521 159.343V158.475C593.45 158.521 593.352 158.564 593.228 158.603C593.107 158.638 592.97 158.672 592.818 158.704C592.665 158.732 592.512 158.759 592.36 158.784C592.207 158.805 592.068 158.825 591.944 158.843C591.678 158.882 591.445 158.944 591.246 159.029C591.047 159.114 590.893 159.23 590.783 159.375C590.673 159.517 590.618 159.695 590.618 159.908C590.618 160.217 590.73 160.453 590.953 160.616C591.181 160.776 591.468 160.856 591.816 160.856ZM604.869 154.086L602.009 162.268H599.452L596.592 154.086H598.989L600.688 159.94H600.773L602.467 154.086H604.869ZM609.496 162.427C608.654 162.427 607.93 162.257 607.322 161.916C606.719 161.572 606.253 161.085 605.927 160.456C605.6 159.824 605.437 159.077 605.437 158.214C605.437 157.372 605.6 156.634 605.927 155.998C606.253 155.362 606.713 154.867 607.306 154.512C607.903 154.157 608.602 153.979 609.405 153.979C609.945 153.979 610.447 154.066 610.912 154.24C611.381 154.411 611.79 154.668 612.138 155.013C612.489 155.357 612.763 155.79 612.958 156.312C613.153 156.831 613.251 157.438 613.251 158.134V158.757H606.342V157.351H611.115C611.115 157.024 611.044 156.735 610.902 156.483C610.76 156.231 610.563 156.034 610.311 155.892C610.062 155.746 609.773 155.673 609.442 155.673C609.098 155.673 608.792 155.753 608.526 155.913C608.263 156.069 608.057 156.28 607.908 156.547C607.759 156.809 607.683 157.102 607.679 157.426V158.763C607.679 159.167 607.754 159.517 607.903 159.812C608.056 160.107 608.27 160.334 608.547 160.494C608.824 160.654 609.153 160.733 609.533 160.733C609.785 160.733 610.016 160.698 610.225 160.627C610.435 160.556 610.614 160.449 610.763 160.307C610.912 160.165 611.026 159.991 611.104 159.785L613.203 159.924C613.096 160.428 612.878 160.868 612.548 161.245C612.221 161.618 611.798 161.909 611.28 162.118C610.765 162.324 610.17 162.427 609.496 162.427ZM617.001 151.358V162.268H614.732V151.358H617.001Z" fill="white"/>
<rect x="324.798" y="145.451" width="152.442" height="25.3521" rx="2" fill="#8F8F8F"/>
<path d="M383.191 151.358V162.268H380.885V151.358H383.191ZM388.743 162.427C387.915 162.427 387.2 162.252 386.596 161.9C385.996 161.545 385.533 161.051 385.206 160.419C384.879 159.784 384.716 159.047 384.716 158.209C384.716 157.363 384.879 156.625 385.206 155.993C385.533 155.357 385.996 154.863 386.596 154.512C387.2 154.157 387.915 153.979 388.743 153.979C389.57 153.979 390.284 154.157 390.884 154.512C391.488 154.863 391.953 155.357 392.28 155.993C392.607 156.625 392.77 157.363 392.77 158.209C392.77 159.047 392.607 159.784 392.28 160.419C391.953 161.051 391.488 161.545 390.884 161.9C390.284 162.252 389.57 162.427 388.743 162.427ZM388.754 160.67C389.13 160.67 389.444 160.563 389.696 160.35C389.949 160.133 390.138 159.839 390.266 159.466C390.398 159.093 390.463 158.669 390.463 158.193C390.463 157.717 390.398 157.292 390.266 156.92C390.138 156.547 389.949 156.252 389.696 156.035C389.444 155.819 389.13 155.71 388.754 155.71C388.374 155.71 388.054 155.819 387.795 156.035C387.539 156.252 387.346 156.547 387.214 156.92C387.086 157.292 387.022 157.717 387.022 158.193C387.022 158.669 387.086 159.093 387.214 159.466C387.346 159.839 387.539 160.133 387.795 160.35C388.054 160.563 388.374 160.67 388.754 160.67ZM396.515 157.537V162.268H394.245V154.086H396.408V155.529H396.504C396.685 155.053 396.989 154.677 397.415 154.4C397.841 154.119 398.358 153.979 398.965 153.979C399.533 153.979 400.028 154.104 400.451 154.352C400.874 154.601 401.202 154.956 401.436 155.417C401.671 155.876 401.788 156.422 401.788 157.058V162.268H399.519V157.463C399.522 156.962 399.395 156.572 399.135 156.291C398.876 156.007 398.519 155.865 398.065 155.865C397.759 155.865 397.489 155.931 397.255 156.062C397.024 156.193 396.843 156.385 396.712 156.637C396.584 156.886 396.518 157.186 396.515 157.537ZM403.576 162.268V154.086H405.846V162.268H403.576ZM404.716 153.031C404.379 153.031 404.09 152.919 403.848 152.695C403.61 152.468 403.491 152.197 403.491 151.881C403.491 151.568 403.61 151.3 403.848 151.076C404.09 150.849 404.379 150.735 404.716 150.735C405.054 150.735 405.341 150.849 405.579 151.076C405.821 151.3 405.941 151.568 405.941 151.881C405.941 152.197 405.821 152.468 405.579 152.695C405.341 152.919 405.054 153.031 404.716 153.031ZM411.36 162.427C410.522 162.427 409.801 162.25 409.197 161.895C408.597 161.536 408.136 161.039 407.812 160.403C407.493 159.768 407.333 159.036 407.333 158.209C407.333 157.371 407.495 156.635 407.818 156.003C408.145 155.368 408.608 154.872 409.208 154.517C409.808 154.159 410.522 153.979 411.349 153.979C412.063 153.979 412.688 154.109 413.224 154.368C413.761 154.627 414.185 154.991 414.498 155.46C414.81 155.929 414.982 156.479 415.014 157.111H412.873C412.813 156.703 412.653 156.374 412.393 156.126C412.138 155.874 411.802 155.748 411.387 155.748C411.035 155.748 410.728 155.844 410.465 156.035C410.206 156.224 410.004 156.499 409.858 156.861C409.712 157.223 409.64 157.662 409.64 158.177C409.64 158.699 409.711 159.143 409.853 159.508C409.998 159.874 410.202 160.153 410.465 160.345C410.728 160.536 411.035 160.632 411.387 160.632C411.646 160.632 411.879 160.579 412.085 160.472C412.294 160.366 412.466 160.211 412.601 160.009C412.74 159.803 412.83 159.556 412.873 159.269H415.014C414.979 159.894 414.808 160.444 414.503 160.92C414.201 161.392 413.784 161.762 413.251 162.028C412.718 162.294 412.088 162.427 411.36 162.427Z" fill="white"/>
<path d="M100.695 46.1044V42.3544L115.695 35.7493V40.0639L105.425 44.1868L105.564 43.9631V44.4957L105.425 44.272L115.695 48.3949V52.7095L100.695 46.1044ZM136.086 46.1044L121.086 52.7095V48.3949L131.356 44.272L131.217 44.4957V43.9631L131.356 44.1868L121.086 40.0639V35.7493L136.086 42.3544V46.1044ZM146.79 36.9851V33.1818H164.709V36.9851H158.029V55H153.47V36.9851H146.79ZM167.66 55V33.1818H182.362V36.9851H172.273V42.1839H181.605V45.9872H172.273V51.1967H182.404V55H167.66ZM189.79 55H184.847L192.379 33.1818H198.323L205.844 55H200.901L195.436 38.1676H195.266L189.79 55ZM189.481 46.424H201.157V50.0249H189.481V46.424ZM208.471 33.1818H214.159L220.168 47.8409H220.424L226.432 33.1818H232.121V55H227.647V40.799H227.466L221.819 54.8935H218.772L213.126 40.7457H212.945V55H208.471V33.1818ZM250.706 55.2983C249.2 55.2983 247.858 55.0213 246.679 54.4673C245.507 53.9134 244.577 53.1499 243.888 52.1768C243.199 51.2038 242.84 50.0888 242.812 48.8317H247.286C247.336 49.6768 247.691 50.3622 248.352 50.8878C249.012 51.4134 249.797 51.6761 250.706 51.6761C251.43 51.6761 252.07 51.5163 252.624 51.1967C253.185 50.87 253.621 50.419 253.934 49.8438C254.254 49.2614 254.413 48.5937 254.413 47.8409C254.413 47.0739 254.25 46.3991 253.923 45.8168C253.604 45.2344 253.16 44.7798 252.592 44.4531C252.023 44.1264 251.374 43.9595 250.642 43.9524C250.003 43.9524 249.381 44.0838 248.778 44.3466C248.181 44.6094 247.716 44.968 247.382 45.4226L243.281 44.6875L244.314 33.1818H257.652V36.9531H248.117L247.553 42.4183H247.68C248.064 41.8786 248.643 41.4311 249.417 41.076C250.191 40.7209 251.058 40.5433 252.016 40.5433C253.33 40.5433 254.502 40.8523 255.532 41.4702C256.562 42.0881 257.375 42.9368 257.972 44.0163C258.568 45.0888 258.863 46.3246 258.856 47.7237C258.863 49.1939 258.522 50.5007 257.833 51.6442C257.151 52.7805 256.196 53.6754 254.967 54.3288C253.746 54.9751 252.325 55.2983 250.706 55.2983Z" fill="#8F8F8F"/>
</svg>
